<svg xmlns="http://www.w3.org/2000/svg" width="380" height="140" viewBox="0 0 380 140">
  <g id="bigcommerce" transform="translate(1391 -1159.7)">
    <rect id="Rectangle_39399" data-name="Rectangle 39399" width="380" height="140" transform="translate(-1391 1159.7)" fill="none"/>
    <g id="Page-1" transform="translate(-1352 1195.7)">
      <g id="Style-Guide---Navigation-Elements" transform="translate(0 0)">
        <path id="BG---Logo-Main" d="M165.334,1613.352a7.113,7.113,0,0,0-5.717-2.965,7.986,7.986,0,0,0,0,15.966,7.8,7.8,0,0,0,5.031-1.825v-2.737a.224.224,0,0,0-.229-.228H158.7a.491.491,0,0,1-.457-.456v-3.649a.491.491,0,0,1,.457-.456h10.291v-5.474l-3.43,1.825C165.791,1613.58,165.562,1613.58,165.334,1613.352Zm-48.709,2.509H122.8c1.829,0,2.973-.913,2.973-2.509s-1.143-2.509-2.973-2.509h-6.174a.491.491,0,0,0-.457.456v4.333C116.167,1615.861,116.4,1615.861,116.624,1615.861Zm25.155,14.6a.491.491,0,0,1-.457.456h-4.574a.491.491,0,0,1-.457-.456v-23.948a.491.491,0,0,1,.457-.456h4.574a.491.491,0,0,1,.457.456Zm26.07-57.248-45.05,32.844h1.143c4.8,0,7.089,2.965,7.089,6.158a5.7,5.7,0,0,1-3.2,5.246.427.427,0,0,0,0,.685,6.38,6.38,0,0,1,3.659,5.7c0,3.649-2.515,6.614-7.089,6.614H111.365a.491.491,0,0,1-.457-.456v-15.51l-33.616,24.4a.907.907,0,0,0,.457,1.6h90.787a.982.982,0,0,0,.915-.912v-12.316a13.909,13.909,0,0,1-9.6,3.649c-7.318,0-13.264-5.018-13.264-12.773s5.946-12.772,13.264-12.772a11.821,11.821,0,0,1,9.6,4.562v-36.493A1.289,1.289,0,0,0,167.849,1573.209Zm-51.225,52.915h6.4c2.058,0,3.2-1.14,3.2-2.737s-1.143-2.737-3.2-2.737h-6.4a.491.491,0,0,0-.457.456v4.79A.8.8,0,0,0,116.624,1626.125Zm78.9-.684-2.744-1.368c-.229,0-.457,0-.457.228a7.049,7.049,0,0,1-5.717,3.193c-4.8,0-8.233-3.877-8.233-8.9,0-5.246,3.43-8.9,8.233-8.9a7.048,7.048,0,0,1,5.717,3.193c0,.228.457.228.457.228l2.744-1.6a.836.836,0,0,0,.229-.684,10.805,10.805,0,0,0-9.376-5.018c-7.089,0-12.578,5.018-12.578,12.772,0,7.527,5.488,12.773,12.578,12.773a10.5,10.5,0,0,0,9.376-5.246C195.749,1625.9,195.749,1625.44,195.52,1625.44Zm14.864,1.825c-4.8,0-7.775-3.877-7.775-8.9s2.973-8.9,7.775-8.9,7.775,3.877,7.775,8.9C218.159,1623.615,214.958,1627.265,210.384,1627.265Zm-3.43-21.212c-5.26,1.369-8.69,6.158-8.69,12.316,0,7.3,5.031,12.772,12.12,12.772a11.654,11.654,0,0,0,11.892-9.579C224.105,1612.211,215.873,1603.772,206.954,1606.053Zm45.05,0h-5.488a.491.491,0,0,0-.457.456l-6.632,16.878-6.632-16.878a.491.491,0,0,0-.457-.456h-5.488a.224.224,0,0,0-.229.228v23.949a.224.224,0,0,0,.229.228h3.659a.223.223,0,0,0,.229-.228v-18.7l7.547,18.931a.224.224,0,0,0,.229.228h1.6a.224.224,0,0,0,.229-.228l7.547-18.931v18.7a.224.224,0,0,0,.229.228h3.659a.223.223,0,0,0,.229-.228v-23.949C252.233,1606.281,252.233,1606.053,252,1606.053Zm55.341,0H291.338a.491.491,0,0,0-.457.456v23.721a.491.491,0,0,0,.457.456h16.008a.491.491,0,0,0,.457-.456v-2.965a.491.491,0,0,0-.457-.456H295.683a.491.491,0,0,1-.457-.456v-5.93a.491.491,0,0,1,.457-.456h11.434a.491.491,0,0,0,.457-.456v-2.965a.491.491,0,0,0-.457-.456H295.683a.491.491,0,0,1-.457-.456v-5.474a.491.491,0,0,1,.457-.456h11.663a.491.491,0,0,0,.457-.456v-2.965A.794.794,0,0,0,307.346,1606.053Zm16.923,11.632H318.78a.491.491,0,0,1-.457-.456v-6.843a.491.491,0,0,1,.457-.456h5.488a3.781,3.781,0,0,1,4.116,3.877C328.384,1616.317,326.555,1617.686,324.268,1617.686Zm3.43,3.193a6.854,6.854,0,0,0,5.26-7.071c0-4.562-3.2-7.755-8-7.755H314.664a.491.491,0,0,0-.457.456v23.721a.491.491,0,0,0,.457.456h3.43a.491.491,0,0,0,.457-.456v-8.211a.491.491,0,0,1,.457-.456h3.659c.229,0,.229,0,.457.228l5.26,8.667c0,.228.229.228.457.228h3.888c.457,0,.457-.456.457-.684-1.143-1.825-4.345-6.843-5.26-8.439C327.241,1621.335,327.241,1621.107,327.7,1620.879Zm39.1-10.948h11.663a.491.491,0,0,0,.457-.456v-2.965a.491.491,0,0,0-.457-.456H362.458a.491.491,0,0,0-.457.456v23.721a.491.491,0,0,0,.457.456h16.008a.491.491,0,0,0,.457-.456v-2.965a.491.491,0,0,0-.457-.456H366.8a.491.491,0,0,1-.457-.456v-5.93a.491.491,0,0,1,.457-.456h11.434a.491.491,0,0,0,.457-.456v-2.965a.491.491,0,0,0-.457-.456H366.8a.491.491,0,0,1-.457-.456v-5.474A.8.8,0,0,1,366.8,1609.93Zm-9.147,15.282-2.744-1.368c-.229,0-.457,0-.457.228a7.049,7.049,0,0,1-5.717,3.193c-4.8,0-8.233-3.877-8.233-8.9,0-5.246,3.43-8.9,8.233-8.9a7.049,7.049,0,0,1,5.717,3.193c0,.228.457.228.457.228l2.744-1.6a.837.837,0,0,0,.229-.685,10.806,10.806,0,0,0-9.376-5.018c-7.089,0-12.578,5.018-12.578,12.772,0,7.527,5.488,12.772,12.578,12.772a10.5,10.5,0,0,0,9.376-5.246A.836.836,0,0,0,357.656,1625.212Zm-73.636-19.159h-5.488a.491.491,0,0,0-.457.456l-6.632,16.878-6.632-16.878a.491.491,0,0,0-.457-.456h-5.488a.224.224,0,0,0-.229.228v23.949a.224.224,0,0,0,.229.228h3.659a.223.223,0,0,0,.229-.228v-18.7l7.547,18.931a.224.224,0,0,0,.229.228h1.6a.224.224,0,0,0,.229-.228l7.547-18.931v18.7a.224.224,0,0,0,.229.228h3.659a.223.223,0,0,0,.229-.228v-23.949C284.249,1606.281,284.02,1606.053,284.02,1606.053Z" transform="translate(-76.952 -1573.014)" fill="#34313f" fill-rule="evenodd"/>
      </g>
    </g>
  </g>
</svg>
