<svg xmlns="http://www.w3.org/2000/svg" width="380" height="140" viewBox="0 0 380 140">
  <g id="drupal" transform="translate(805 -980.975)">
    <rect id="Rectangle_39400" data-name="Rectangle 39400" width="380" height="140" transform="translate(-805 980.975)" fill="none"/>
    <g id="drupal-2" data-name="drupal" transform="translate(-742.252 1018.048)">
      <path id="Path_57855" data-name="Path 57855" d="M261.6,33.647H250.876l.018,19.969c0,5.836-2.514,10.557-8.379,10.557s-8.4-4.721-8.4-10.557V33.666h-10.7l0,19.95c0,11.532,7.45,20.879,19.041,20.879S261.6,65.149,261.6,53.616Z" transform="translate(-142.367 -21.397)" fill="#00a4e4"/>
      <rect id="Rectangle_39397" data-name="Rectangle 39397" width="10.673" height="52.243" transform="translate(215.455 0.022)" fill="#00a4e4"/>
      <path id="Path_57856" data-name="Path 57856" d="M644.916,2.074V.2h8.318V2.074h-3.042v8.272H647.96V2.074Z" transform="translate(-410.909 -0.125)" fill="#00a4e4"/>
      <path id="Path_57857" data-name="Path 57857" d="M674.1.2l2.374,6.978h.028L678.751.2h3.143V10.346H679.8V3.153h-.029l-2.487,7.193h-1.721l-2.487-7.122h-.028v7.122h-2.09V.2Z" transform="translate(-427.473 -0.125)" fill="#00a4e4"/>
      <path id="Path_57858" data-name="Path 57858" d="M152.552,31.891c-9.2-2.123-15,7.016-15.244,7.507-.118.24-.123.381-.53.37-.337-.007-.375-.37-.375-.37l-1.142-6.991H125.7v39.9h10.717v-21.6c0-1.765,4.753-10.227,13.961-8.049,4.657,1.1,6.632,3.078,6.632,3.078V33.583a17.084,17.084,0,0,0-4.458-1.692Z" transform="translate(-80.097 -20.171)" fill="#00a4e4"/>
      <path id="Path_57859" data-name="Path 57859" d="M349.49,85.442V71.085l0,0,0-5.376s.017-.43.4-.436c.346,0,.423.225.507.436a12.711,12.711,0,0,0,15.2,7.309,21.126,21.126,0,1,0-26.862-20.335V85.442Zm10.389-43.448a10.694,10.694,0,1,1-10.692,10.692,10.694,10.694,0,0,1,10.692-10.692Z" transform="translate(-215.873 -20.271)" fill="#00a4e4"/>
      <path id="Path_57860" data-name="Path 57860" d="M497.506,72.124h10.746V52.586A21.116,21.116,0,1,0,481.39,72.822a12.721,12.721,0,0,0,15.2-7.274c.084-.209.16-.437.507-.433.388.005.4.433.4.433m.31-12.963a10.694,10.694,0,1,1-10.692-10.64,10.668,10.668,0,0,1,10.692,10.64Z" transform="translate(-296.969 -20.072)" fill="#00a4e4"/>
      <path id="Path_57861" data-name="Path 57861" d="M12.191,52.164H0V0H13.081C28.92,0,40.933,2.906,40.933,26.082,40.933,49.035,28.208,52.164,12.191,52.164ZM15.1,9.042H10.792V43.114l4.426.113c9.076,0,14.922-.826,14.922-17.145C30.139,10.433,24.978,9.042,15.1,9.042Z" fill="#00a4e4"/>
    </g>
  </g>
</svg>
