<svg id="facebook" xmlns="http://www.w3.org/2000/svg" width="32" height="32" viewBox="0 0 32 32">
  <path id="Path_2584" data-name="Path 2584" d="M298.451,508.668q-3.784.617-7.6,1.137Q294.667,509.285,298.451,508.668Zm0,0" transform="translate(-266.451 -480.609)" fill="#fff"/>
  <path id="Path_2585" data-name="Path 2585" d="M302.958,507.793c-1.206.222-2.412.425-3.618.633C300.546,508.218,301.752,508.015,302.958,507.793Zm0,0" transform="translate(-272.28 -480.769)" fill="#fff"/>
  <path id="Path_2586" data-name="Path 2586" d="M286.513,510.34q-4.429.5-8.9.878Q282.08,510.843,286.513,510.34Zm0,0" transform="translate(-254.54 -480.304)" fill="#fff"/>
  <path id="Path_2587" data-name="Path 2587" d="M290.715,509.738c-1.418.189-2.846.365-4.269.531C287.868,510.1,289.3,509.928,290.715,509.738Zm0,0" transform="translate(-260.458 -480.414)" fill="#fff"/>
  <path id="Path_2588" data-name="Path 2588" d="M309.861,506.41c-1.063.226-2.13.453-3.2.67C307.731,506.863,308.8,506.637,309.861,506.41Zm0,0" transform="translate(-278.952 -480.987)" fill="#fff"/>
  <path id="Path_2589" data-name="Path 2589" d="M327.063,502.113c-.859.245-1.719.476-2.578.716C325.344,502.589,326.2,502.358,327.063,502.113Zm0,0" transform="translate(-295.382 -481.744)" fill="#fff"/>
  <path id="Path_2590" data-name="Path 2590" d="M321.868,503.543c-.933.245-1.871.494-2.809.73Q320.465,503.92,321.868,503.543Zm0,0" transform="translate(-290.409 -481.492)" fill="#fff"/>
  <path id="Path_2591" data-name="Path 2591" d="M315.051,505.254c-.989.231-1.987.448-2.985.67C313.064,505.7,314.062,505.485,315.051,505.254Zm0,0" transform="translate(-283.922 -481.191)" fill="#fff"/>
  <path id="Path_2592" data-name="Path 2592" d="M278.267,511.09q-2.391.2-4.787.36Q275.879,511.291,278.267,511.09Zm0,0" transform="translate(-248.471 -480.167)" fill="#fff"/>
  <path id="Path_2593" data-name="Path 2593" d="M31.5,16A15.876,15.876,0,0,0,15.751,0,15.876,15.876,0,0,0,0,16,15.876,15.876,0,0,0,15.75,32h.277V19.542H12.643V15.536h3.383V12.588c0-3.419,2.055-5.28,5.057-5.28a27.423,27.423,0,0,1,3.034.157v3.571H22.047c-1.633,0-1.95.788-1.95,1.946v2.551H24l-.513,4.008h-3.4V31.383A15.974,15.974,0,0,0,31.5,16Zm0,0" transform="translate(-0.001 -0.001)" fill="#fff"/>
  <path id="Path_2594" data-name="Path 2594" d="M274.381,511.43q-4.727.305-9.49.471Q269.652,511.742,274.381,511.43Zm0,0" transform="translate(-242.704 -480.104)" fill="#fff"/>
  <path id="Path_2595" data-name="Path 2595" d="M265.531,511.836q-2.509.083-5.027.125Q263.02,511.919,265.531,511.836Zm0,0" transform="translate(-236.312 -480.03)" fill="#fff"/>
</svg>
