<svg id="linkein" xmlns="http://www.w3.org/2000/svg" width="32" height="32" viewBox="0 0 32 32">
  <path id="Path_2582" data-name="Path 2582" d="M16,0A16,16,0,1,0,32,16,16,16,0,0,0,16,0ZM11.351,24.187h-3.9V12.464h3.9ZM9.4,10.868H9.377a2.031,2.031,0,1,1,.051-4.055A2.032,2.032,0,1,1,9.4,10.868Zm16,13.324h-3.9v-6.28c0-1.576-.565-2.652-1.974-2.652a2.133,2.133,0,0,0-2,1.425,2.669,2.669,0,0,0-.128.951v6.547h-3.9s.051-10.623,0-11.723h3.9v1.66a3.868,3.868,0,0,1,3.512-1.935c2.564,0,4.486,1.675,4.486,5.276Zm0,0" fill="#fff"/>
</svg>
