<svg xmlns="http://www.w3.org/2000/svg" xmlns:xlink="http://www.w3.org/1999/xlink" width="64" height="64" viewBox="0 0 64 64">
  <defs>
    <filter id="Path_49023" x="0" y="0" width="64" height="64" filterUnits="userSpaceOnUse">
      <feOffset input="SourceAlpha"/>
      <feGaussianBlur stdDeviation="3" result="blur"/>
      <feFlood flood-opacity="0.161"/>
      <feComposite operator="in" in2="blur"/>
      <feComposite in="SourceGraphic"/>
    </filter>
  </defs>
  <g id="previous" transform="translate(-833 -5244)">
    <g transform="matrix(1, 0, 0, 1, 833, 5244)" filter="url(#Path_49023)">
      <path id="Path_49023-2" data-name="Path 49023" d="M7,0H39a7,7,0,0,1,7,7V39a7,7,0,0,1-7,7H7a7,7,0,0,1-7-7V7A7,7,0,0,1,7,0Z" transform="translate(9 9)" fill="#fff"/>
    </g>
    <g id="keyboard_tab_black_24dp" transform="translate(851 5263.915)">
      <path id="Path_48908" data-name="Path 48908" d="M25,0H0V25H25Z" transform="translate(2 0.085)" fill="none"/>
      <path id="Path_48909" data-name="Path 48909" d="M3.76,7.719.031,11.458h19.76v2.083H.031l3.74,3.74L2.292,18.75l-6.25-6.25,6.25-6.25Z" transform="translate(6.958 -0.165)" fill="#e0e0e0"/>
    </g>
  </g>
</svg>
