<svg xmlns="http://www.w3.org/2000/svg" width="380" height="140" viewBox="0 0 380 140">
  <g id="shopify" transform="translate(387 -900.87)">
    <rect id="Rectangle_39403" data-name="Rectangle 39403" width="380" height="140" transform="translate(-387 900.87)" fill="none"/>
    <g id="shopify-2" data-name="shopify" transform="translate(-344.07 929.131)">
      <path id="Path_57873" data-name="Path 57873" d="M62.588,15.981a.74.74,0,0,0-.7-.646c-.291,0-6.527-.47-6.527-.47s-4.312-4.348-4.837-4.818a1.925,1.925,0,0,0-1.748-.235c-.058,0-.932.294-2.448.764-1.457-4.289-4.021-8.167-8.508-8.167h-.408A5.477,5.477,0,0,0,33.217,0c-10.49,0-15.5,13.219-17.075,19.917C12.063,21.21,9.149,22.091,8.8,22.208c-2.273.705-2.331.764-2.622,2.938C5.944,26.791,0,73.206,0,73.206L46.329,81.96,71.445,76.5C71.445,76.437,62.646,16.392,62.588,15.981Zm-18.823-4.7c-1.166.353-2.506.764-3.9,1.234v-.881a19.809,19.809,0,0,0-.932-6.4C41.259,5.581,42.774,8.225,43.765,11.28ZM36.014,5.816a19.811,19.811,0,0,1,1.049,7.109v.47c-2.564.823-5.3,1.645-8.1,2.526C30.536,9.87,33.508,6.933,36.014,5.816Zm-3.089-3a2.323,2.323,0,0,1,1.34.47c-3.38,1.586-6.935,5.581-8.45,13.631-2.214.705-4.371,1.351-6.41,2C21.154,12.808,25.408,2.82,32.926,2.82Z" transform="translate(0 0)" fill="#95bf47"/>
      <path id="Path_57874" data-name="Path 57874" d="M62.882,15.409c-.291,0-6.527-.471-6.527-.471s-4.312-4.352-4.837-4.823a.932.932,0,0,0-.641-.294l-3.5,72.344L72.5,76.7S63.7,16.526,63.64,16.115a1.013,1.013,0,0,0-.758-.706Z" transform="translate(-0.588 -0.206)" fill="#5e8e3e"/>
      <path id="Path_57875" data-name="Path 57875" d="M38.055,29.618l-3.089,9.207a14.359,14.359,0,0,0-6.061-1.457c-4.9,0-5.128,3.089-5.128,3.846,0,4.2,10.956,5.828,10.956,15.676,0,7.751-4.9,12.762-11.538,12.762a15.92,15.92,0,0,1-12-4.953l2.156-7.051s4.2,3.613,7.692,3.613A3.109,3.109,0,0,0,24.3,58.114c0-5.478-8.974-5.711-8.974-14.744,0-7.576,5.42-14.918,16.434-14.918A13.008,13.008,0,0,1,38.055,29.618Z" transform="translate(-0.235 -0.155)" fill="#fff"/>
      <path id="Path_57876" data-name="Path 57876" d="M102.534,47.008c-2.506-1.34-3.788-2.506-3.788-4.079,0-1.981,1.807-3.263,4.6-3.263a16.663,16.663,0,0,1,6.177,1.34l2.273-6.993s-2.1-1.632-8.275-1.632C94.9,32.381,88.9,37.334,88.9,44.269c0,3.963,2.8,6.935,6.527,9.091,3.03,1.69,4.079,2.914,4.079,4.72,0,1.865-1.515,3.38-4.312,3.38a19.447,19.447,0,0,1-8.1-2.156L84.643,66.3a18.482,18.482,0,0,0,9.732,2.448c8.858,0,15.268-4.371,15.268-12.238C109.585,52.194,106.379,49.222,102.534,47.008Z" transform="translate(-1.044 -0.229)"/>
      <path id="Path_57877" data-name="Path 57877" d="M138.426,31.949a13.307,13.307,0,0,0-10.431,5.245l-.117-.058,3.788-19.814h-9.848L112.2,67.788h9.848l3.263-17.249c1.282-6.527,4.662-10.548,7.809-10.548,2.214,0,3.089,1.515,3.089,3.671a22.194,22.194,0,0,1-.408,4.371l-3.729,19.755h9.848l3.846-20.4a38.972,38.972,0,0,0,.7-6.469C146.527,35.27,143.613,31.949,138.426,31.949Z" transform="translate(-1.358 -0.019)"/>
      <path id="Path_57878" data-name="Path 57878" d="M169.637,32.262c-11.888,0-19.755,10.723-19.755,22.669,0,7.634,4.72,13.811,13.578,13.811,11.655,0,19.522-10.431,19.522-22.669C183.04,38.964,178.9,32.262,169.637,32.262Zm-4.837,28.9c-3.38,0-4.779-2.855-4.779-6.469,0-5.653,2.914-14.86,8.275-14.86,3.5,0,4.662,3.03,4.662,5.944C172.958,51.842,169.986,61.166,164.8,61.166Z" transform="translate(-1.82 -0.227)"/>
      <path id="Path_57879" data-name="Path 57879" d="M208.933,32.262c-6.643,0-10.431,5.886-10.431,5.886h-.117l.583-5.3h-8.741c-.408,3.555-1.224,9.033-1.981,13.112l-6.877,36.131h9.848l2.739-14.627h.233a11.551,11.551,0,0,0,5.769,1.282c11.6,0,19.173-11.888,19.173-23.893C219.131,38.206,216.16,32.262,208.933,32.262Zm-9.441,29.021a6.213,6.213,0,0,1-4.079-1.457l1.632-9.207c1.165-6.177,4.371-10.256,7.809-10.256,3.03,0,3.963,2.8,3.963,5.42,0,6.41-3.788,15.5-9.324,15.5Z" transform="translate(-2.172 -0.011)"/>
      <path id="Path_57880" data-name="Path 57880" d="M234.224,17.8a5.634,5.634,0,0,0-5.653,5.711c0,2.914,1.865,4.953,4.662,4.953h.117a5.551,5.551,0,0,0,5.769-5.711,4.665,4.665,0,0,0-4.9-4.953Z" transform="translate(-2.937 -0.213)"/>
      <path id="Path_57881" data-name="Path 57881" d="M220.238,68.06h9.849l6.7-35.024h-9.907Z" transform="translate(-2.791 -0.246)"/>
      <path id="Path_57882" data-name="Path 57882" d="M262.3,32.841h-6.876l.35-1.653c.583-3.424,2.564-6.435,5.886-6.435a9.824,9.824,0,0,1,3.147.531l1.923-7.851a12.519,12.519,0,0,0-5.361-.885,14.721,14.721,0,0,0-9.674,3.306c-3.38,2.893-4.953,7.084-5.711,11.334l-.291,1.653h-4.6L239.629,40.4h4.6l-5.245,27.982h9.848L254.081,40.4H260.9Z" transform="translate(-2.682 -0.347)"/>
      <path id="Path_57883" data-name="Path 57883" d="M286.5,33.036S280.325,48.6,277.586,57.1h-.117c-.175-2.739-2.448-24.068-2.448-24.068H264.65l5.944,32.11a2.143,2.143,0,0,1-.233,1.632A17.29,17.29,0,0,1,265,72.721a22.756,22.756,0,0,1-5.594,2.8l2.739,8.392a22.7,22.7,0,0,0,9.674-5.361c4.487-4.2,8.683-10.723,12.937-19.58l12.063-25.932Z" transform="translate(-3.11 -0.027)"/>
    </g>
  </g>
</svg>
