<svg xmlns="http://www.w3.org/2000/svg" width="380" height="140" viewBox="0 0 380 140">
  <g id="ultracart" transform="translate(1530 -1329)">
    <rect id="Rectangle_39398" data-name="Rectangle 39398" width="380" height="140" transform="translate(-1530 1329)" fill="none"/>
    <g id="UltraCart-logo" transform="translate(-1530 1342)">
      <g id="ULTRACART-2" data-name="ULTRACART" transform="translate(139.001 42.9)">
        <path id="Path_57854" data-name="Path 57854" d="M132.83,34.263h-2.673a.76.76,0,0,0-.76.76V51.565a6.574,6.574,0,0,1-6.7,7.017c-4.066,0-6.625-3.116-6.625-7.093V35.023a.76.76,0,0,0-.76-.76H112.64a.785.785,0,0,0-.76.76V51.768a10.842,10.842,0,1,0,21.685,0V35.01A.785.785,0,0,0,132.83,34.263ZM159.1,58.469H148.3V35.01a.785.785,0,0,0-.76-.76h-2.571a.76.76,0,0,0-.76.76V61.42a.76.76,0,0,0,.76.76h14.2a.76.76,0,0,0,.76-.76v-2.2a.76.76,0,0,0-.823-.747Zm20.925-24.206H162.888a.76.76,0,0,0-.76.76v2.229a.76.76,0,0,0,.76.76h6.5V61.42a.785.785,0,0,0,.76.76h2.685a.785.785,0,0,0,.76-.76V38.012h6.5a.76.76,0,0,0,.76-.76V35.01a.76.76,0,0,0-.811-.747Zm28.55,8.537a8.6,8.6,0,0,0-8.689-8.537H189.044a.76.76,0,0,0-.76.76v26.4a.76.76,0,0,0,.76.76h2.533a.785.785,0,0,0,.76-.76V51.287h6.017l5.307,10.564a.735.735,0,0,0,.633.355h3.116a.76.76,0,0,0,.684-1.153l-5.459-10.133a8.866,8.866,0,0,0,5.941-8.132Zm-9.006,5.067h-7.093v-9.74h7.093a4.889,4.889,0,0,1,4.864,4.775,4.953,4.953,0,0,1-4.864,4.915Zm28.664-13.515a.937.937,0,0,0-.684-.443h-.393a.937.937,0,0,0-.684.443l-12.236,26.84a.709.709,0,0,0,.684,1.039h2.533a1,1,0,0,0,.912-.6c.8-1.837,1.634-3.623,2.432-5.459h13.034l2.533,5.459a.925.925,0,0,0,.912.6h2.533a.709.709,0,0,0,.684-1.039Zm-5.9,18.379L227.2,41.8h.2l4.9,10.931Zm45.333,3.154a.735.735,0,0,0-.963,0,10.678,10.678,0,0,1-6.853,2.635,10.348,10.348,0,0,1,0-20.7,10.8,10.8,0,0,1,6.9,2.673c.355.355.722.355,1,0l1.761-1.8a.747.747,0,0,0,0-1.115,13.844,13.844,0,0,0-9.652-3.711,14.357,14.357,0,1,0,0,28.715,13.692,13.692,0,0,0,9.69-3.863.76.76,0,0,0,0-1.077Zm20.925-21.533a.937.937,0,0,0-.684-.443h-.393a.937.937,0,0,0-.684.443l-12.236,26.84a.709.709,0,0,0,.684,1.039h2.533a1,1,0,0,0,.912-.6c.8-1.837,1.634-3.623,2.432-5.459h13.034l2.533,5.459a.925.925,0,0,0,.912.6h2.533a.709.709,0,0,0,.684-1.039Zm-5.9,18.379L287.551,41.8h.2l4.9,10.931Zm45.536-9.892a8.6,8.6,0,0,0-8.689-8.537H308.691a.76.76,0,0,0-.76.76V61.42a.76.76,0,0,0,.76.76h2.533a.785.785,0,0,0,.76-.76V51.287H318l5.307,10.564a.735.735,0,0,0,.633.355h3.116a.76.76,0,0,0,.684-1.153l-5.459-10.133a8.866,8.866,0,0,0,5.928-8.132ZM319.217,47.9h-7.055V38.126h7.093a4.889,4.889,0,0,1,4.813,4.775,4.953,4.953,0,0,1-4.877,4.915ZM352.15,34.352H334.961a.76.76,0,0,0-.76.76v2.229a.76.76,0,0,0,.76.76h6.5V61.42a.785.785,0,0,0,.76.76h2.635a.785.785,0,0,0,.76-.76V38.012h6.5a.76.76,0,0,0,.76-.76V35.01a.76.76,0,0,0-.785-.747Z" transform="translate(-111.88 -33.869)" fill="#222" fill-rule="evenodd"/>
      </g>
      <g id="Ellipse_1_copy" data-name="Ellipse 1 copy">
        <circle id="Ellipse_518" data-name="Ellipse 518" cx="57" cy="57" r="57" fill="#61b6e6"/>
      </g>
      <path id="logo-u" d="M69.637,22.436l-3.521,5.738a26.777,26.777,0,1,1-28.3-.114l-3.534-5.7a33.49,33.49,0,1,0,35.352.089Z" transform="translate(4.905 5.962)" fill="#fff" fill-rule="evenodd"/>
      <path id="logo-c" d="M57.316,54.283a10.716,10.716,0,1,1,.127-11.59L62.7,39.437a16.859,16.859,0,1,0,0,18.164Z" transform="translate(8.436 8.442)" fill="#fff" fill-rule="evenodd"/>
    </g>
  </g>
</svg>
