<svg xmlns="http://www.w3.org/2000/svg" width="380" height="140" viewBox="0 0 380 140">
  <g id="woocommerce" transform="translate(1408 -1329.21)">
    <rect id="Rectangle_39406" data-name="Rectangle 39406" width="380" height="140" transform="translate(-1408 1329.21)" fill="none"/>
    <g id="logo-woocommerce" transform="translate(-1394.099 1363.763)">
      <path id="Path_57905" data-name="Path 57905" d="M107.9,0H11.043A11.045,11.045,0,0,0,0,11.091V48.062A11.086,11.086,0,0,0,11.092,59.153H56.964L77.931,70.828,73.163,59.153H107.9a11.086,11.086,0,0,0,11.091-11.091V11.091A11.086,11.086,0,0,0,107.9,0ZM9,8.562A3.915,3.915,0,0,0,5.935,10.07a4.344,4.344,0,0,0-.778,3.259q4.305,27.363,8.027,36.922c.973,2.335,2.092,3.454,3.405,3.357,2.043-.146,4.475-2.967,7.345-8.464q2.262-4.67,7-14.01,3.94,13.791,10.751,20.723a4.891,4.891,0,0,0,3.843,1.8A3.135,3.135,0,0,0,48.111,51.9a5.773,5.773,0,0,0,.584-3.211c-.292-4.427.146-10.6,1.362-18.534C51.322,21.988,52.878,16.1,54.776,12.6a4.223,4.223,0,0,0,.486-2.335,3.81,3.81,0,0,0-1.508-2.773,4.227,4.227,0,0,0-3.065-.973,3.736,3.736,0,0,0-3.211,2.14Q42.955,16.9,41.058,35.414a90.853,90.853,0,0,1-4.622-16.637c-.535-2.87-1.848-4.232-3.989-4.086q-2.189.146-3.648,2.919L18.145,37.895q-2.627-10.58-4.913-25.831Q12.721,8.27,9,8.562Zm93.74,3.5a11.2,11.2,0,0,1,7.783,5.643,18.4,18.4,0,0,1,2.335,9.583,26.065,26.065,0,0,1-3.794,13.767c-2.919,4.865-6.713,7.3-11.432,7.3a12.772,12.772,0,0,1-2.627-.292,11.2,11.2,0,0,1-7.783-5.643,18.837,18.837,0,0,1-2.335-9.632,25.777,25.777,0,0,1,3.794-13.718c2.967-4.865,6.762-7.3,11.432-7.3A12.769,12.769,0,0,1,102.74,12.064ZM100.7,38.381a12.869,12.869,0,0,0,3.7-7.2,21.03,21.03,0,0,0,.34-3.6,12.346,12.346,0,0,0-.876-4.427c-.73-1.9-1.7-2.919-2.87-3.162-1.751-.341-3.454.632-5.059,3.016A15.728,15.728,0,0,0,93.352,28.8a16.907,16.907,0,0,0-.341,3.551,12.345,12.345,0,0,0,.876,4.427c.73,1.9,1.7,2.919,2.87,3.162C97.973,40.181,99.286,39.646,100.7,38.381ZM80.023,17.707a11.3,11.3,0,0,0-7.783-5.643,12.772,12.772,0,0,0-2.627-.292c-4.67,0-8.464,2.432-11.432,7.3a25.774,25.774,0,0,0-3.794,13.718,18.837,18.837,0,0,0,2.335,9.632A11.2,11.2,0,0,0,64.5,48.062a12.767,12.767,0,0,0,2.627.292c4.719,0,8.513-2.432,11.432-7.3A26.065,26.065,0,0,0,82.357,27.29,18.408,18.408,0,0,0,80.023,17.707Zm-6.13,13.475a12.867,12.867,0,0,1-3.7,7.2c-1.411,1.265-2.724,1.8-3.94,1.557-1.168-.243-2.141-1.265-2.87-3.162a12.345,12.345,0,0,1-.876-4.427,16.906,16.906,0,0,1,.341-3.551,15.727,15.727,0,0,1,2.578-5.789c1.606-2.384,3.308-3.357,5.059-3.016,1.168.243,2.141,1.265,2.87,3.162a12.346,12.346,0,0,1,.876,4.427A17.056,17.056,0,0,1,73.893,31.182Z" transform="translate(0)" fill="#7f54b3" fill-rule="evenodd"/>
      <path id="Path_57906" data-name="Path 57906" d="M45.536,8.822a16.455,16.455,0,0,0-4.865,12.259c0,5.3,1.605,9.632,4.816,12.891s7.394,4.913,12.6,4.913a18.321,18.321,0,0,0,5.059-.778V30.226a16.372,16.372,0,0,1-4.427.73,7.965,7.965,0,0,1-6.178-2.578,10.2,10.2,0,0,1-2.335-7.054,10.109,10.109,0,0,1,2.286-6.81,7.282,7.282,0,0,1,5.789-2.676,18.169,18.169,0,0,1,4.865.73V4.687a20.32,20.32,0,0,0-5.3-.632A16.568,16.568,0,0,0,45.536,8.822ZM79.3,4.006c-4.475,0-7.978,1.508-10.508,4.475s-3.746,7.151-3.746,12.5c0,5.789,1.265,10.216,3.746,13.28s6.129,4.621,10.9,4.621c4.621,0,8.172-1.556,10.653-4.621s3.746-7.394,3.746-12.94S92.819,11.5,90.29,8.481C87.712,5.514,84.063,4.006,79.3,4.006Zm3.843,25.3A4.321,4.321,0,0,1,79.3,31.345,3.912,3.912,0,0,1,75.745,29.3c-.827-1.362-1.216-4.086-1.216-8.221,0-6.373,1.605-9.535,4.865-9.535,3.405,0,5.156,3.211,5.156,9.681C84.5,25.216,84.015,27.94,83.139,29.3ZM118.115,4.93l-1.751,7.443c-.438,1.9-.875,3.843-1.265,5.837l-.973,5.157c-.924-5.157-2.189-11.286-3.794-18.437H99.046L94.814,38.058h8.464l2.286-22.815,5.789,22.815h6.032l5.545-22.766,2.384,22.766h8.854L129.693,4.93Zm40.522,0-1.751,7.443c-.438,1.9-.876,3.843-1.265,5.837l-.973,5.157c-.924-5.157-2.189-11.286-3.794-18.437H139.568l-4.232,33.128H143.8l2.286-22.815,5.789,22.815h6.032l5.5-22.766,2.384,22.766h8.854L170.166,4.93ZM186.17,24.972H194.1V18.113H186.17V12.033h9.146V4.979h-18.1V38.107h18.145V31.053H186.17Zm34.393-5.254a8.853,8.853,0,0,0,1.411-4.67,8.721,8.721,0,0,0-3.648-7.394c-2.432-1.8-5.789-2.724-9.972-2.724h-10.41V38.058h8.951V22.978h.146l7.248,15.08h9.437l-7.151-14.934A8.843,8.843,0,0,0,220.563,19.719Zm-13.718-.535V11.3a8.184,8.184,0,0,1,4.573,1.07,3.784,3.784,0,0,1,1.362,3.308C212.78,17.967,210.785,19.135,206.845,19.183ZM227.226,8.822a16.459,16.459,0,0,0-4.863,12.259c0,5.3,1.605,9.632,4.817,12.891s7.392,4.913,12.6,4.913a18.3,18.3,0,0,0,5.058-.778V30.226a16.355,16.355,0,0,1-4.427.73,7.965,7.965,0,0,1-6.177-2.578,10.2,10.2,0,0,1-2.335-7.054,10.11,10.11,0,0,1,2.285-6.81,7.283,7.283,0,0,1,5.788-2.676,18.166,18.166,0,0,1,4.865.73V4.687a20.3,20.3,0,0,0-5.3-.632A16.649,16.649,0,0,0,227.226,8.822ZM256.27,30.956V24.924H264.2V18.065H256.27V11.984h9.192V4.93h-18.1V38.058h18.145V31H256.27Z" transform="translate(85.759 8.447)"/>
    </g>
  </g>
</svg>
