<svg xmlns="http://www.w3.org/2000/svg" width="380" height="140" viewBox="0 0 380 140">
  <g id="wordpress" transform="translate(-131 -656.937)">
    <rect id="Rectangle_39404" data-name="Rectangle 39404" width="379.003" height="140" transform="translate(131.997 656.937)" fill="none"/>
    <g id="wordpress-2" data-name="wordpress" transform="translate(131 687.909)">
      <path id="Path_57884" data-name="Path 57884" d="M232.292,31.546H216.9v1.633c4.816,0,5.59,1.032,5.59,7.139V51.328c0,6.106-.774,7.224-5.59,7.224-3.7-.516-6.192-2.495-9.633-6.279l-3.956-4.3c5.332-.947,8.17-4.3,8.17-8.086,0-4.73-4.042-8.342-11.611-8.342H184.729v1.633c4.816,0,5.59,1.032,5.59,7.139V51.327c0,6.106-.774,7.224-5.59,7.224v1.634h17.116V58.552c-4.816,0-5.59-1.118-5.59-7.224v-3.1h1.462l9.547,11.954h25.029c12.3,0,17.632-6.536,17.632-14.364S244.591,31.546,232.292,31.546ZM196.255,45.564V34.126h3.526c3.87,0,5.591,2.666,5.591,5.762,0,3.011-1.721,5.676-5.591,5.676Zm36.3,11.956h-.6c-3.1,0-3.526-.774-3.526-4.731V34.126h4.128c8.944,0,10.579,6.536,10.579,11.611,0,5.247-1.634,11.783-10.579,11.783Z" transform="translate(-16.497 -2.817)" fill="#32373c"/>
      <path id="Path_57885" data-name="Path 57885" d="M128.3,47.9l5.935-17.547c1.721-5.074.947-6.536-4.558-6.536V22.1h16.17v1.721c-5.418,0-6.708,1.29-8.859,7.569L127.18,60.8h-1.117l-8.774-26.921L108.345,60.8h-1.118L97.679,31.39c-2.064-6.279-3.441-7.569-8.429-7.569V22.1h19.094v1.721c-5.075,0-6.451,1.2-4.644,6.536L109.462,47.9l8.688-25.8h1.634Z" transform="translate(-7.97 -1.974)" fill="#32373c"/>
      <path id="Path_57886" data-name="Path 57886" d="M162.549,61.194c-9.46,0-17.2-6.967-17.2-15.482,0-8.428,7.742-15.4,17.2-15.4s17.2,6.968,17.2,15.4C179.75,54.228,172.01,61.194,162.549,61.194Zm0-28.21c-7.912,0-10.665,7.138-10.665,12.728,0,5.677,2.753,12.73,10.665,12.73,8,0,10.751-7.053,10.751-12.73,0-5.59-2.752-12.728-10.751-12.728Z" transform="translate(-12.98 -2.707)" fill="#32373c"/>
      <path id="Path_57887" data-name="Path 57887" d="M277.711,57.622v1.72h-19.7v-1.72c5.763,0,6.795-1.462,6.795-10.064V33.8c0-8.6-1.032-9.977-6.795-9.977V22.1h17.8c8.859,0,13.762,4.559,13.762,10.666,0,5.935-4.9,10.579-13.762,10.579h-4.9v4.214C270.916,56.16,271.948,57.622,277.711,57.622ZM275.818,25.2h-4.9V40.162h4.9c4.817,0,7.053-3.354,7.053-7.4,0-4.128-2.236-7.57-7.053-7.57Z" transform="translate(-23.041 -1.974)" fill="#32373c"/>
      <path id="Path_57888" data-name="Path 57888" d="M351.956,52.1l-.43,1.548c-.774,2.838-1.721,3.87-7.827,3.87h-1.2c-4.472,0-5.246-1.032-5.246-7.139V46.425c6.708,0,7.225.6,7.225,5.074h1.635V38.684h-1.634c0,4.473-.516,5.074-7.225,5.074V34.126h4.73c6.107,0,7.053,1.032,7.827,3.87l.431,1.633h1.375l-.6-8.084H325.723v1.633c4.816,0,5.59,1.032,5.59,7.139V51.328c0,5.586-.658,6.993-4.455,7.194-3.609-.551-6.087-2.52-9.477-6.248l-3.957-4.3c5.333-.947,8.171-4.3,8.171-8.086,0-4.73-4.042-8.342-11.611-8.342H294.848v1.633c4.816,0,5.59,1.032,5.59,7.139V51.328c0,6.106-.774,7.224-5.59,7.224v1.634h17.115V58.552c-4.816,0-5.59-1.118-5.59-7.224v-3.1h1.462l9.547,11.954H352.73l.516-8.084Zm-45.583-6.538V34.126H309.9c3.87,0,5.591,2.666,5.591,5.762,0,3.011-1.721,5.676-5.591,5.676Z" transform="translate(-26.33 -2.817)" fill="#32373c"/>
      <path id="Path_57889" data-name="Path 57889" d="M375.674,61.194a12.72,12.72,0,0,1-7.741-2.925,6.183,6.183,0,0,0-1.376,2.925h-1.634V49.325h1.72c.689,5.676,4.644,9.031,9.719,9.031,2.752,0,4.989-1.548,4.989-4.128,0-2.236-1.979-3.957-5.5-5.59l-4.9-2.322c-3.441-1.635-6.021-4.474-6.021-8.257,0-4.128,3.87-7.654,9.2-7.654a10.77,10.77,0,0,1,6.708,2.236,4.867,4.867,0,0,0,1.118-2.323h1.634v10.15H381.78c-.6-4.043-2.838-7.4-7.4-7.4-2.409,0-4.645,1.376-4.645,3.527,0,2.236,1.806,3.44,5.935,5.332l4.73,2.322c4.129,1.978,5.763,5.161,5.763,7.742C386.166,57.41,381.436,61.194,375.674,61.194Z" transform="translate(-32.588 -2.707)" fill="#32373c"/>
      <path id="Path_57890" data-name="Path 57890" d="M404.231,61.194a12.72,12.72,0,0,1-7.741-2.925,6.184,6.184,0,0,0-1.375,2.925h-1.634V49.325h1.72c.689,5.676,4.644,9.031,9.719,9.031,2.752,0,4.989-1.548,4.989-4.128,0-2.236-1.979-3.957-5.5-5.59l-4.9-2.322c-3.441-1.635-6.021-4.474-6.021-8.257,0-4.128,3.87-7.654,9.2-7.654a10.77,10.77,0,0,1,6.708,2.236,4.857,4.857,0,0,0,1.117-2.323h1.635v10.15h-1.806c-.6-4.043-2.838-7.4-7.4-7.4-2.408,0-4.645,1.376-4.645,3.527,0,2.236,1.806,3.44,5.935,5.332l4.73,2.322c4.129,1.978,5.763,5.161,5.763,7.742C414.723,57.41,409.993,61.194,404.231,61.194Z" transform="translate(-35.138 -2.707)" fill="#32373c"/>
      <path id="Path_57891" data-name="Path 57891" d="M38.7,2.322A36.319,36.319,0,1,1,24.544,5.18,36.319,36.319,0,0,1,38.7,2.322M38.7,0a38.7,38.7,0,1,0,38.7,38.7A38.7,38.7,0,0,0,38.7,0Z" fill="#32373c"/>
      <path id="Path_57892" data-name="Path 57892" d="M7.083,39.336A32.258,32.258,0,0,0,25.267,68.365L9.876,26.21A32.128,32.128,0,0,0,7.083,39.336Zm54.028-1.627a16.987,16.987,0,0,0-2.659-8.895c-1.635-2.658-3.168-4.907-3.168-7.565A5.585,5.585,0,0,1,60.7,15.525c.143,0,.279.017.418.026a32.247,32.247,0,0,0-48.73,6.069c.757.024,1.471.039,2.076.039,3.373,0,8.6-.41,8.6-.41a1.333,1.333,0,1,1,.206,2.658s-1.748.2-3.691.306L31.321,59.151,38.38,37.982,33.355,24.214c-1.738-.1-3.383-.306-3.383-.306a1.333,1.333,0,1,1,.2-2.658s5.325.41,8.495.41c3.373,0,8.6-.41,8.6-.41a1.333,1.333,0,1,1,.205,2.658s-1.75.2-3.691.306L55.439,58.885l3.327-10.543c1.478-4.608,2.345-7.872,2.345-10.632ZM39.9,42.157l-9.679,28.12a32.267,32.267,0,0,0,19.824-.514,2.94,2.94,0,0,1-.232-.445ZM67.641,23.863a24.771,24.771,0,0,1,.217,3.316A30.447,30.447,0,0,1,65.4,38.731L55.553,67.214A32.258,32.258,0,0,0,67.641,23.863Z" transform="translate(-0.633 -0.633)" fill="#32373c"/>
    </g>
  </g>
</svg>
